<svg width="186" height="32" viewBox="0 0 186 32" fill="none" xmlns="http://www.w3.org/2000/svg">
<path d="M23.7259 26.2841C23.1285 26.2841 22.6699 26.0495 22.3499 25.5801C22.0299 25.1108 21.8699 24.5561 21.8699 23.9161C21.8699 22.6788 22.4352 20.9935 23.5659 18.8601C22.7765 18.9241 21.9872 18.9561 21.1979 18.9561C20.6219 18.9561 19.5339 18.9241 17.9339 18.8601L13.8379 18.7321C12.3445 21.1215 11.1285 23.2975 10.1899 25.2601C9.91254 25.8361 9.53921 26.1241 9.06987 26.1241C8.74988 26.1241 8.58988 25.9748 8.58988 25.6761C8.58988 25.4628 8.65388 25.2281 8.78187 24.9721C9.14454 24.1828 9.61388 23.2655 10.1899 22.2201C10.7872 21.1748 11.4805 20.0015 12.2699 18.7001C10.5205 18.7001 9.35787 18.7748 8.78187 18.9241C7.82187 19.1588 7.10721 19.6388 6.63788 20.3641C6.46721 20.5988 6.32854 20.7268 6.22187 20.7481C6.09387 20.7695 6.02987 20.7161 6.02987 20.5881C6.02987 20.4815 6.07254 20.3855 6.15788 20.3001C6.96854 19.2121 7.78987 18.4548 8.62187 18.0281C9.47521 17.5801 10.9579 17.3881 13.0699 17.4521C14.3925 15.4681 16.2165 12.5241 18.5419 8.62012C19.4165 6.97745 19.8539 5.64412 19.8539 4.62012C19.8539 2.95612 18.7339 2.12412 16.4939 2.12412C13.7632 2.12412 11.2245 2.83879 8.87788 4.26812C7.64054 5.03612 6.47787 6.00679 5.38987 7.18012C4.30187 8.33212 3.42721 9.56945 2.76587 10.8921C2.10454 12.1935 1.77387 13.4735 1.77387 14.7321C1.77387 16.7161 2.70187 17.7081 4.55787 17.7081C5.38987 17.7081 6.12587 17.5161 6.76587 17.1321C7.40587 16.7268 7.97121 16.2148 8.46187 15.5961C9.42187 14.4015 9.90187 13.2175 9.90187 12.0441C9.90187 11.3828 9.73121 10.8388 9.38988 10.4121C9.34721 10.3695 9.32588 10.3161 9.32588 10.2521C9.32588 10.1028 9.41121 10.0281 9.58187 10.0281C9.68854 10.0281 9.75254 10.0601 9.77388 10.1241C10.2005 10.6788 10.4139 11.3401 10.4139 12.1081C10.4139 13.4095 9.88054 14.7428 8.81388 16.1081C8.15254 16.9188 7.46987 17.5161 6.76587 17.9001C6.08321 18.2628 5.29387 18.4441 4.39787 18.4441C3.05387 18.4441 2.00854 18.0281 1.26187 17.1961C0.515208 16.3428 0.141875 15.2548 0.141875 13.9321C0.141875 12.1401 0.675208 10.4441 1.74187 8.84412C2.82987 7.24412 4.19521 5.86812 5.83787 4.71612C9.08054 2.43345 12.6965 1.34545 16.6859 1.45212C17.5392 1.47345 18.3392 1.63345 19.0859 1.93212C19.8325 2.20945 20.4299 2.62545 20.8779 3.18012C21.3472 3.71345 21.5819 4.38545 21.5819 5.19612C21.5819 6.22012 21.1872 7.36145 20.3979 8.62012L14.6059 17.5161C15.0325 17.5375 15.5872 17.5801 16.2699 17.6441C16.9525 17.6868 17.7632 17.7615 18.7019 17.8681C19.4912 17.9535 20.1525 18.0175 20.6859 18.0601C21.2192 18.0815 21.6245 18.0921 21.9019 18.0921C22.3925 18.0921 22.8085 18.0921 23.1499 18.0921C23.5125 18.0921 23.8005 18.0815 24.0139 18.0601L25.2299 16.0441C26.2965 14.2735 27.4059 12.5988 28.5579 11.0201C29.7312 9.42012 30.9472 7.91612 32.2059 6.50812C35.0645 3.35078 37.5072 1.40945 39.5339 0.684118C39.5979 0.662785 39.6725 0.652119 39.7579 0.652119C39.8859 0.652119 39.9499 0.737452 39.9499 0.908117C39.9499 0.972118 39.9179 1.02545 39.8539 1.06812C39.1925 1.43078 38.3819 2.07078 37.4219 2.98812C36.4832 3.88412 35.3845 5.05745 34.1259 6.50812C31.4805 9.55879 29.2299 12.6415 27.3739 15.7561L26.1259 17.8681C27.1072 17.7401 27.8112 17.4948 28.2379 17.1321C28.3232 17.0681 28.3979 17.1001 28.4619 17.2281C28.5259 17.3775 28.5152 17.4841 28.4299 17.5481C27.7899 18.0388 26.8832 18.3908 25.7099 18.6041C24.2165 21.3775 23.4699 23.3295 23.4699 24.4601C23.4699 25.1855 23.7792 25.5481 24.3979 25.5481C24.8245 25.5481 25.3152 25.3988 25.8699 25.1001C26.4459 24.8228 26.9045 24.5028 27.2459 24.1401C27.2885 24.0975 27.3205 24.0761 27.3419 24.0761C27.4059 24.0761 27.4379 24.1401 27.4379 24.2681C27.4165 24.4175 27.3632 24.5348 27.2779 24.6201C27.0219 24.8761 26.6805 25.1321 26.2539 25.3881C25.8272 25.6441 25.3792 25.8575 24.9099 26.0281C24.4619 26.1988 24.0672 26.2841 23.7259 26.2841ZM31.6034 24.5881C30.9207 24.5881 30.302 24.3748 29.7474 23.9481C29.1927 23.5001 28.9154 22.9135 28.9154 22.1881C28.9154 20.6735 29.8434 18.9455 31.6994 17.0041C33.598 15.0415 35.294 14.0601 36.7874 14.0601C37.278 14.0601 37.6727 14.1988 37.9714 14.4761C38.2914 14.7321 38.4514 15.0521 38.4514 15.4361C38.4514 16.6308 37.502 17.8041 35.6034 18.9561C33.918 19.9801 32.4994 20.4921 31.3474 20.4921C31.1767 20.4921 31.0274 20.4708 30.8994 20.4281C30.5794 21.0041 30.4194 21.6121 30.4194 22.2521C30.4194 23.3615 30.942 23.9161 31.9874 23.9161C33.054 23.9161 34.43 23.2015 36.1154 21.7721C37.4167 20.7268 38.526 19.6175 39.4434 18.4441C39.6354 18.1881 39.806 18.0601 39.9554 18.0601C40.0834 18.0601 40.1474 18.1241 40.1474 18.2521C40.1474 18.3801 40.062 18.5615 39.8914 18.7961C39.294 19.5855 38.654 20.3108 37.9714 20.9721C37.2887 21.6335 36.5527 22.2415 35.7634 22.7961C34.1207 23.9908 32.734 24.5881 31.6034 24.5881ZM31.7954 19.7881C32.606 19.7881 33.662 19.3828 34.9634 18.5721C35.39 18.2735 35.806 17.9428 36.2114 17.5801C36.638 17.1961 36.9794 16.8121 37.2354 16.4281C37.5127 16.0441 37.6514 15.7028 37.6514 15.4041C37.6514 15.1268 37.4274 14.9881 36.9794 14.9881C36.3394 14.9881 35.4434 15.4681 34.2914 16.4281C33.7367 16.8975 33.2034 17.4095 32.6914 17.9641C32.1794 18.5188 31.742 19.1055 31.3794 19.7241C31.5074 19.7668 31.646 19.7881 31.7954 19.7881ZM46.3501 24.2361C45.7741 24.2361 45.3688 24.0761 45.1341 23.7561C44.8995 23.4148 44.7821 22.9988 44.7821 22.5081C44.7821 21.2708 45.2088 19.9481 46.0621 18.5401L48.1101 15.2121C46.6595 16.2788 45.2195 17.6121 43.7901 19.2121C43.4061 19.6388 42.9688 20.1401 42.4781 20.7161C42.0088 21.2921 41.4861 21.9535 40.9101 22.7001C40.1421 23.7028 39.6835 24.2041 39.5341 24.2041C39.2355 24.2041 38.9901 24.0761 38.7981 23.8201C38.6061 23.5428 38.5101 23.2975 38.5101 23.0841C38.5101 22.9135 38.5635 22.6041 38.6701 22.1561C38.7768 21.6868 38.9048 21.2815 39.0541 20.9401C39.2035 20.5775 39.3528 20.2255 39.5021 19.8841C39.6728 19.5215 39.8328 19.1695 39.9821 18.8281L38.0621 20.8441C38.0195 20.8868 37.8915 21.0148 37.6781 21.2281C37.4648 21.4415 37.2941 21.5481 37.1661 21.5481C37.0595 21.5481 37.0061 21.4735 37.0061 21.3241C37.0061 21.2815 37.0275 21.2281 37.0701 21.1641C37.0915 21.0788 37.1555 20.9828 37.2621 20.8761C37.5821 20.5561 37.9128 20.2148 38.2541 19.8521C38.5955 19.4895 38.9475 19.0735 39.3101 18.6041C39.5021 18.3695 39.7901 18.0175 40.1741 17.5481C40.5581 17.0575 40.9741 16.5348 41.4221 15.9801C41.8915 15.4255 42.3288 14.9135 42.7341 14.4441C42.8408 14.2948 42.9581 14.1988 43.0861 14.1561C43.2141 14.0921 43.2995 14.0601 43.3421 14.0601C43.9181 14.0601 44.2061 14.2841 44.2061 14.7321C44.2061 14.8601 44.1741 14.9881 44.1101 15.1161C42.1901 17.7615 41.0381 19.7775 40.6541 21.1641C43.1288 18.6895 45.1128 16.8335 46.6061 15.5961C48.1208 14.3375 49.1981 13.7081 49.8381 13.7081C50.1795 13.7081 50.4355 13.7615 50.6061 13.8681C50.7981 13.9748 50.8941 14.1775 50.8941 14.4761C50.8941 14.5828 50.8835 14.6681 50.8621 14.7321C50.7981 14.8815 50.3608 15.4788 49.5501 16.5241C49.0595 17.1215 48.6221 17.6655 48.2381 18.1561C47.8755 18.6468 47.5768 19.0735 47.3421 19.4361C46.9581 20.0335 46.6701 20.5988 46.4781 21.1321C46.2861 21.6441 46.1901 22.0815 46.1901 22.4441C46.1901 22.5935 46.2115 22.7748 46.2541 22.9881C46.2968 23.2015 46.4248 23.3081 46.6381 23.3081C47.1288 23.3081 47.8968 22.8815 48.9421 22.0281C49.4328 21.6015 49.8915 21.1748 50.3181 20.7481C50.7448 20.3001 51.1501 19.8628 51.5341 19.4361C51.6195 19.3508 51.7581 19.1908 51.9501 18.9561C52.1421 18.7001 52.2595 18.5721 52.3021 18.5721C52.3875 18.5721 52.4301 18.6575 52.4301 18.8281C52.4301 18.9135 52.3768 19.0628 52.2701 19.2761C52.1848 19.4681 52.0888 19.6175 51.9821 19.7241C51.7475 20.0015 51.3955 20.3855 50.9261 20.8761C50.4781 21.3668 49.9661 21.8681 49.3901 22.3801C48.8355 22.8921 48.2915 23.3295 47.7581 23.6921C47.2248 24.0548 46.7555 24.2361 46.3501 24.2361ZM57.6244 24.3321C56.707 24.3321 56.0777 24.0975 55.7364 23.6281C55.395 23.1375 55.2244 22.4868 55.2244 21.6761C55.2244 20.7801 55.5017 19.7135 56.0564 18.4761C56.2697 17.9855 56.4937 17.5481 56.7284 17.1641C56.963 16.7588 57.2084 16.3855 57.4644 16.0441C57.379 16.0655 57.3044 16.0761 57.2404 16.0761C57.1764 16.0761 57.1124 16.0761 57.0484 16.0761C56.5364 16.0761 56.1097 15.7135 55.7684 14.9881L53.4004 18.0601C52.1417 19.7028 51.3737 20.5241 51.0964 20.5241C50.9897 20.5241 50.9364 20.4815 50.9364 20.3961C50.9364 20.2895 50.9897 20.1508 51.0964 19.9801C51.1604 19.8521 51.2884 19.6815 51.4804 19.4681C52.291 18.5295 53.0377 17.6015 53.7204 16.6841C54.403 15.7668 54.9684 14.8708 55.4164 13.9961C55.907 12.1401 56.5257 11.2121 57.2724 11.2121C57.763 11.2121 58.0084 11.4361 58.0084 11.8841C58.0084 12.2895 57.7417 12.8228 57.2084 13.4841C56.6964 14.1455 56.4404 14.4868 56.4404 14.5081C56.4404 14.9561 56.771 15.1801 57.4324 15.1801C57.8164 15.1801 58.243 15.0415 58.7124 14.7641L59.5444 14.2521C59.587 14.2308 59.651 14.2201 59.7364 14.2201C59.9924 14.2201 60.2164 14.3268 60.4084 14.5401C60.6004 14.7535 60.6644 14.9455 60.6004 15.1161L58.3924 17.9001C57.027 19.6495 56.3444 21.0575 56.3444 22.1241C56.3444 23.0841 56.8137 23.5641 57.7524 23.5641C58.3924 23.5641 59.075 23.3721 59.8004 22.9881C60.547 22.6041 61.2617 22.1348 61.9444 21.5801C62.6484 21.0041 63.235 20.4495 63.7044 19.9161L64.4724 19.0201C64.515 18.9775 64.5684 18.9241 64.6324 18.8601C64.6964 18.7961 64.7497 18.7641 64.7924 18.7641C64.9417 18.7641 65.0164 18.8388 65.0164 18.9881C65.0164 19.0308 64.995 19.1055 64.9524 19.2121C64.9097 19.3188 64.835 19.4361 64.7284 19.5641L63.7044 20.7161C63.2137 21.2708 62.6057 21.8361 61.8804 22.4121C61.1764 22.9668 60.4404 23.4255 59.6724 23.7881C58.9257 24.1508 58.243 24.3321 57.6244 24.3321ZM70.7621 13.1641C70.3995 13.1641 70.0795 13.0468 69.8021 12.8121C69.5461 12.5775 69.4181 12.3108 69.4181 12.0121C69.4181 11.4148 69.8235 11.1161 70.6341 11.1161C70.9328 11.1161 71.2315 11.2228 71.5301 11.4361C71.8288 11.6281 71.9781 11.8735 71.9781 12.1721C71.9781 12.4281 71.8395 12.6628 71.5621 12.8761C71.2848 13.0681 71.0181 13.1641 70.7621 13.1641ZM64.8421 24.5241C64.3728 24.5241 63.9888 24.3748 63.6901 24.0761C63.3701 23.7561 63.2101 23.2015 63.2101 22.4121C63.2101 21.9641 63.3168 21.4521 63.5301 20.8761C63.7221 20.2788 63.9675 19.6815 64.2661 19.0841C64.5861 18.4868 64.8955 17.9535 65.1941 17.4841C66.3888 15.5428 67.3701 14.5615 68.1381 14.5401C68.3301 14.5401 68.5648 14.6255 68.8421 14.7961C69.1195 14.9455 69.2581 15.1161 69.2581 15.3081C69.2581 15.3081 68.4475 16.3535 66.8261 18.4441C65.2261 20.5135 64.4261 21.9855 64.4261 22.8601C64.4261 23.5428 64.6928 23.8841 65.2261 23.8841C65.5675 23.8841 66.0048 23.7455 66.5381 23.4681C67.0928 23.1695 67.6688 22.7961 68.2661 22.3481C68.8635 21.9001 69.4288 21.4201 69.9621 20.9081C70.5168 20.3961 70.9648 19.9268 71.3061 19.5001C71.5195 19.2228 71.7008 19.0308 71.8501 18.9241C72.0208 18.8175 72.1275 18.7641 72.1701 18.7641C72.2555 18.7641 72.2981 18.8281 72.2981 18.9561C72.2981 19.0628 72.1701 19.2761 71.9141 19.5961C71.6795 19.9161 71.3488 20.2895 70.9221 20.7161C70.4101 21.2281 69.8448 21.7828 69.2261 22.3801C68.6075 22.9775 67.9355 23.4895 67.2101 23.9161C66.4848 24.3215 65.6955 24.5241 64.8421 24.5241ZM74.2369 31.9161C73.1275 31.9161 72.5729 31.0948 72.5729 29.4521C72.5729 28.4495 72.8395 27.3188 73.3729 26.0601L74.8449 22.6361C73.4582 23.5748 72.3702 24.0441 71.5809 24.0441C70.5355 24.0441 70.0129 23.4681 70.0129 22.3161C70.0129 21.4201 70.5782 20.3108 71.7089 18.9881C72.7115 17.8575 73.7035 17.0255 74.6849 16.4921C77.0315 15.1908 78.9409 14.5401 80.4129 14.5401C80.8822 14.5401 81.1702 14.7215 81.2769 15.0841V16.1081L81.6609 16.3961C81.7675 16.5028 81.8209 16.5775 81.8209 16.6201C81.8209 16.6841 81.7889 16.7695 81.7249 16.8761L79.1969 19.2761C78.4075 20.0655 77.7355 20.8441 77.1809 21.6121C76.6262 22.3588 76.1995 23.0841 75.9009 23.7881C76.0289 23.7455 76.3702 23.7241 76.9249 23.7241C77.5222 23.7241 77.9809 23.9695 78.3009 24.4601C78.6209 24.9508 78.7809 25.4521 78.7809 25.9641C78.7809 26.9881 78.3329 28.1935 77.4369 29.5801C76.4555 31.1375 75.3889 31.9161 74.2369 31.9161ZM71.7409 23.4041C72.8075 23.4041 74.2369 22.4761 76.0289 20.6201L80.0609 16.3321C80.0395 16.2041 79.9009 16.1401 79.6449 16.1401C78.5782 16.1401 76.9995 16.8121 74.9089 18.1561C74.2475 18.5828 73.6182 19.0628 73.0209 19.5961C72.4235 20.1295 71.9329 20.6735 71.5489 21.2281C71.1649 21.7828 70.9729 22.3161 70.9729 22.8281C70.9729 23.2121 71.2289 23.4041 71.7409 23.4041ZM74.5249 31.2761C75.3142 31.2761 76.0395 30.5401 76.7009 29.0681C76.9569 28.4708 77.1489 27.9268 77.2769 27.4361C77.4262 26.9668 77.5009 26.5615 77.5009 26.2201C77.5009 25.4735 77.3302 24.9935 76.9889 24.7801C76.7329 24.5881 76.2635 24.4815 75.5809 24.4601C75.1755 25.1001 74.7489 25.9748 74.3009 27.0841C73.8102 28.3641 73.5649 29.3028 73.5649 29.9001C73.5649 30.1561 73.6502 30.4441 73.8209 30.7641C74.0129 31.1055 74.2475 31.2761 74.5249 31.2761ZM83.0379 24.5241C82.0779 24.5241 81.5979 23.9161 81.5979 22.7001C81.5979 22.2308 81.7365 21.6761 82.0139 21.0361C82.3125 20.3748 82.7285 19.6815 83.2619 18.9561C83.2619 18.9561 83.0699 19.1375 82.6859 19.5001C82.3019 19.8628 81.8645 20.3215 81.3739 20.8761C81.2885 20.9615 81.1819 21.0041 81.0539 21.0041C80.9685 21.0041 80.9259 20.9508 80.9259 20.8441C80.9259 20.7375 81.0219 20.5561 81.2139 20.3001L85.6299 15.1161C86.1845 14.4761 86.7925 14.1561 87.4539 14.1561C87.9445 14.1561 88.1899 14.3481 88.1899 14.7321C88.1899 14.8815 88.1259 15.0201 87.9979 15.1481C87.5925 15.5321 87.0912 16.0761 86.4939 16.7801C85.9179 17.4841 85.3525 18.2415 84.7979 19.0521C84.2432 19.8628 83.7739 20.6415 83.3899 21.3881C83.0272 22.1135 82.8459 22.7001 82.8459 23.1481C82.8459 23.5321 82.9739 23.7241 83.2299 23.7241C83.3792 23.7241 83.6139 23.6708 83.9339 23.5641C84.2539 23.4361 84.6805 23.1908 85.2139 22.8281C85.7472 22.4441 86.3872 21.8575 87.1339 21.0681C87.2619 20.9401 87.6032 20.5561 88.1579 19.9161C88.7125 19.2761 89.4592 18.3588 90.3979 17.1641C92.0619 15.0948 93.1499 14.0601 93.6619 14.0601C94.3659 14.0601 94.7499 14.3481 94.8139 14.9241C94.8565 15.1161 94.4085 15.7455 93.4699 16.8121C92.2539 18.2841 91.4219 19.3401 90.9739 19.9801C90.1419 21.1961 89.7259 22.1455 89.7259 22.8281C89.7259 23.2975 89.8859 23.5321 90.2059 23.5321C90.5259 23.5321 90.9312 23.3828 91.4219 23.0841C91.9339 22.7641 92.4672 22.3695 93.0219 21.9001C93.5765 21.4095 94.1099 20.9081 94.6219 20.3961C95.1552 19.8628 95.6139 19.3721 95.9979 18.9241C96.1259 18.7748 96.2539 18.7001 96.3819 18.7001C96.5099 18.7001 96.5739 18.7641 96.5739 18.8921C96.5739 18.9348 96.5632 18.9988 96.5419 19.0841C96.5205 19.1695 96.4565 19.2655 96.3499 19.3721C96.0085 19.7561 95.5712 20.2361 95.0379 20.8121C94.5045 21.3668 93.9285 21.9215 93.3099 22.4761C92.6912 23.0308 92.0939 23.4895 91.5179 23.8521C90.9419 24.2148 90.4512 24.3961 90.0459 24.3961C89.5552 24.3961 89.1285 24.2681 88.7659 24.0121C88.4032 23.7348 88.2219 23.3615 88.2219 22.8921C88.2219 22.4228 88.2965 21.9535 88.4459 21.4841C88.5952 20.9935 88.7125 20.5775 88.7979 20.2361C87.7952 21.4095 86.9099 22.3055 86.1419 22.9241C85.3952 23.5428 84.7659 23.9588 84.2539 24.1721C83.7419 24.4068 83.3365 24.5241 83.0379 24.5241ZM96.7596 24.5881C96.077 24.5881 95.4583 24.3748 94.9036 23.9481C94.349 23.5001 94.0716 22.9135 94.0716 22.1881C94.0716 20.6735 94.9996 18.9455 96.8556 17.0041C98.7543 15.0415 100.45 14.0601 101.944 14.0601C102.434 14.0601 102.829 14.1988 103.128 14.4761C103.448 14.7321 103.608 15.0521 103.608 15.4361C103.608 16.6308 102.658 17.8041 100.76 18.9561C99.0743 19.9801 97.6556 20.4921 96.5036 20.4921C96.333 20.4921 96.1836 20.4708 96.0556 20.4281C95.7356 21.0041 95.5756 21.6121 95.5756 22.2521C95.5756 23.3615 96.0983 23.9161 97.1436 23.9161C98.2103 23.9161 99.5863 23.2015 101.272 21.7721C102.573 20.7268 103.682 19.6175 104.6 18.4441C104.792 18.1881 104.962 18.0601 105.112 18.0601C105.24 18.0601 105.304 18.1241 105.304 18.2521C105.304 18.3801 105.218 18.5615 105.048 18.7961C104.45 19.5855 103.81 20.3108 103.128 20.9721C102.445 21.6335 101.709 22.2415 100.92 22.7961C99.277 23.9908 97.8903 24.5881 96.7596 24.5881ZM96.9516 19.7881C97.7623 19.7881 98.8183 19.3828 100.12 18.5721C100.546 18.2735 100.962 17.9428 101.368 17.5801C101.794 17.1961 102.136 16.8121 102.392 16.4281C102.669 16.0441 102.808 15.7028 102.808 15.4041C102.808 15.1268 102.584 14.9881 102.136 14.9881C101.496 14.9881 100.6 15.4681 99.4476 16.4281C98.893 16.8975 98.3596 17.4095 97.8476 17.9641C97.3356 18.5188 96.8983 19.1055 96.5356 19.7241C96.6636 19.7668 96.8023 19.7881 96.9516 19.7881ZM122.85 27.6281C121.186 27.6281 119.863 27.2335 118.882 26.4441C117.901 25.6761 117.41 24.5561 117.41 23.0841C117.41 22.0175 117.634 21.0148 118.082 20.0761C118.551 19.1161 119.181 18.2628 119.97 17.5161C120.759 16.7695 121.655 16.1828 122.658 15.7561C123.682 15.3295 124.749 15.1161 125.858 15.1161C126.989 15.1161 127.874 15.3721 128.514 15.8841C129.175 16.3961 129.506 17.0895 129.506 17.9641C129.506 18.6041 129.09 19.4361 128.258 20.4601C127.426 21.4841 127.01 21.8255 127.01 21.4841C127.01 21.3988 127.042 21.3135 127.106 21.2281C127.789 20.2255 128.13 19.2868 128.13 18.4121C128.13 17.6228 127.874 16.9935 127.362 16.5241C126.871 16.0548 126.221 15.8201 125.41 15.8201C124.514 15.8201 123.65 16.0441 122.818 16.4921C122.007 16.9188 121.282 17.4948 120.642 18.2201C120.002 18.9455 119.501 19.7455 119.138 20.6201C118.775 21.4948 118.594 22.3588 118.594 23.2121C118.594 24.3855 118.967 25.2708 119.714 25.8681C120.482 26.4868 121.485 26.7961 122.722 26.7961C123.981 26.7961 125.186 26.5615 126.338 26.0921C127.511 25.6441 128.557 24.9935 129.474 24.1401C130.562 23.1161 131.661 21.6228 132.77 19.6601L135.554 14.6361C136.279 13.4841 137.037 12.0975 137.826 10.4761C138.615 8.83345 139.447 6.95612 140.322 4.84412C137.25 4.80145 134.263 5.10012 131.362 5.74012C128.269 6.40145 125.975 7.31879 124.482 8.49212C123.842 8.96145 123.522 9.45212 123.522 9.96412C123.522 10.4121 123.767 10.7855 124.258 11.0841C124.77 11.3615 125.41 11.5001 126.178 11.5001C126.626 11.5001 127.159 11.4361 127.778 11.3081C128.397 11.1801 128.994 11.0095 129.57 10.7961C130.146 10.5615 130.583 10.3055 130.882 10.0281C131.095 9.85745 131.245 9.77212 131.33 9.77212C131.501 9.77212 131.533 9.85745 131.426 10.0281C130.978 10.5615 130.391 11.0095 129.666 11.3721C128.962 11.7348 128.215 12.0121 127.426 12.2041C126.637 12.3748 125.901 12.4601 125.218 12.4601C124.173 12.4601 123.351 12.2575 122.754 11.8521C122.178 11.4255 121.89 10.8815 121.89 10.2201C121.89 9.45212 122.274 8.70545 123.042 7.98012C124.493 6.57212 127.085 5.52678 130.818 4.84412C132.269 4.58812 133.826 4.40678 135.49 4.30012C137.154 4.17212 138.925 4.11878 140.802 4.14012C141.271 3.73478 141.719 3.53212 142.146 3.53212C142.573 3.53212 142.733 3.75612 142.626 4.20412C143.97 4.28945 145.325 4.46012 146.69 4.71612C148.077 4.97212 149.335 5.33479 150.466 5.80412C151.618 6.25212 152.546 6.81745 153.25 7.50012C153.954 8.16145 154.306 8.95079 154.306 9.86812C154.306 10.8495 153.975 11.7881 153.314 12.6841C152.674 13.5588 151.842 14.3375 150.818 15.0201C149.815 15.7028 148.759 16.2468 147.65 16.6521C146.626 17.0148 145.527 17.3028 144.354 17.5161C143.202 17.7295 142.061 17.8361 140.93 17.8361C140.077 17.8361 139.255 17.7721 138.466 17.6441C137.698 17.5161 136.994 17.3135 136.354 17.0361C135.053 18.9348 133.965 20.4815 133.09 21.6761C132.237 22.8708 131.575 23.7028 131.106 24.1721C128.802 26.4761 126.05 27.6281 122.85 27.6281ZM140.13 17.0681C140.919 17.0681 141.698 16.9935 142.466 16.8441C143.255 16.6735 144.098 16.4495 144.994 16.1721C145.89 15.8735 146.797 15.5001 147.714 15.0521C148.631 14.5828 149.474 14.0601 150.242 13.4841C151.01 12.8868 151.629 12.2575 152.098 11.5961C152.567 10.9135 152.802 10.2308 152.802 9.54812C152.802 8.78012 152.482 8.11878 151.842 7.56412C151.202 6.98812 150.359 6.51879 149.314 6.15612C148.269 5.79345 147.138 5.51612 145.922 5.32412C144.706 5.11078 143.533 4.97212 142.402 4.90812L141.378 8.10812C141.015 9.02545 140.503 10.0921 139.842 11.3081C139.181 12.5241 138.37 13.8895 137.41 15.4041L136.706 16.4921C136.855 16.5775 137.015 16.6521 137.186 16.7161C137.378 16.7588 137.581 16.8015 137.794 16.8441C138.199 16.9295 138.594 16.9935 138.978 17.0361C139.362 17.0575 139.746 17.0681 140.13 17.0681ZM156.918 13.1641C156.556 13.1641 156.236 13.0468 155.958 12.8121C155.702 12.5775 155.574 12.3108 155.574 12.0121C155.574 11.4148 155.98 11.1161 156.79 11.1161C157.089 11.1161 157.388 11.2228 157.686 11.4361C157.985 11.6281 158.134 11.8735 158.134 12.1721C158.134 12.4281 157.996 12.6628 157.718 12.8761C157.441 13.0681 157.174 13.1641 156.918 13.1641ZM150.998 24.5241C150.529 24.5241 150.145 24.3748 149.846 24.0761C149.526 23.7561 149.366 23.2015 149.366 22.4121C149.366 21.9641 149.473 21.4521 149.686 20.8761C149.878 20.2788 150.124 19.6815 150.422 19.0841C150.742 18.4868 151.052 17.9535 151.35 17.4841C152.545 15.5428 153.526 14.5615 154.294 14.5401C154.486 14.5401 154.721 14.6255 154.998 14.7961C155.276 14.9455 155.414 15.1161 155.414 15.3081C155.414 15.3081 154.604 16.3535 152.982 18.4441C151.382 20.5135 150.582 21.9855 150.582 22.8601C150.582 23.5428 150.849 23.8841 151.382 23.8841C151.724 23.8841 152.161 23.7455 152.694 23.4681C153.249 23.1695 153.825 22.7961 154.422 22.3481C155.02 21.9001 155.585 21.4201 156.118 20.9081C156.673 20.3961 157.121 19.9268 157.462 19.5001C157.676 19.2228 157.857 19.0308 158.006 18.9241C158.177 18.8175 158.284 18.7641 158.326 18.7641C158.412 18.7641 158.454 18.8281 158.454 18.9561C158.454 19.0628 158.326 19.2761 158.07 19.5961C157.836 19.9161 157.505 20.2895 157.078 20.7161C156.566 21.2281 156.001 21.7828 155.382 22.3801C154.764 22.9775 154.092 23.4895 153.366 23.9161C152.641 24.3215 151.852 24.5241 150.998 24.5241ZM165.225 24.2361C164.649 24.2361 164.244 24.0761 164.009 23.7561C163.774 23.4148 163.657 22.9988 163.657 22.5081C163.657 21.2708 164.084 19.9481 164.937 18.5401L166.985 15.2121C165.534 16.2788 164.094 17.6121 162.665 19.2121C162.281 19.6388 161.844 20.1401 161.353 20.7161C160.884 21.2921 160.361 21.9535 159.785 22.7001C159.017 23.7028 158.558 24.2041 158.409 24.2041C158.11 24.2041 157.865 24.0761 157.673 23.8201C157.481 23.5428 157.385 23.2975 157.385 23.0841C157.385 22.9135 157.438 22.6041 157.545 22.1561C157.652 21.6868 157.78 21.2815 157.929 20.9401C158.078 20.5775 158.228 20.2255 158.377 19.8841C158.548 19.5215 158.708 19.1695 158.857 18.8281L156.937 20.8441C156.894 20.8868 156.766 21.0148 156.553 21.2281C156.34 21.4415 156.169 21.5481 156.041 21.5481C155.934 21.5481 155.881 21.4735 155.881 21.3241C155.881 21.2815 155.902 21.2281 155.945 21.1641C155.966 21.0788 156.03 20.9828 156.137 20.8761C156.457 20.5561 156.788 20.2148 157.129 19.8521C157.47 19.4895 157.822 19.0735 158.185 18.6041C158.377 18.3695 158.665 18.0175 159.049 17.5481C159.433 17.0575 159.849 16.5348 160.297 15.9801C160.766 15.4255 161.204 14.9135 161.609 14.4441C161.716 14.2948 161.833 14.1988 161.961 14.1561C162.089 14.0921 162.174 14.0601 162.217 14.0601C162.793 14.0601 163.081 14.2841 163.081 14.7321C163.081 14.8601 163.049 14.9881 162.985 15.1161C161.065 17.7615 159.913 19.7775 159.529 21.1641C162.004 18.6895 163.988 16.8335 165.481 15.5961C166.996 14.3375 168.073 13.7081 168.713 13.7081C169.054 13.7081 169.31 13.7615 169.481 13.8681C169.673 13.9748 169.769 14.1775 169.769 14.4761C169.769 14.5828 169.758 14.6681 169.737 14.7321C169.673 14.8815 169.236 15.4788 168.425 16.5241C167.934 17.1215 167.497 17.6655 167.113 18.1561C166.75 18.6468 166.452 19.0735 166.217 19.4361C165.833 20.0335 165.545 20.5988 165.353 21.1321C165.161 21.6441 165.065 22.0815 165.065 22.4441C165.065 22.5935 165.086 22.7748 165.129 22.9881C165.172 23.2015 165.3 23.3081 165.513 23.3081C166.004 23.3081 166.772 22.8815 167.817 22.0281C168.308 21.6015 168.766 21.1748 169.193 20.7481C169.62 20.3001 170.025 19.8628 170.409 19.4361C170.494 19.3508 170.633 19.1908 170.825 18.9561C171.017 18.7001 171.134 18.5721 171.177 18.5721C171.262 18.5721 171.305 18.6575 171.305 18.8281C171.305 18.9135 171.252 19.0628 171.145 19.2761C171.06 19.4681 170.964 19.6175 170.857 19.7241C170.622 20.0015 170.27 20.3855 169.801 20.8761C169.353 21.3668 168.841 21.8681 168.265 22.3801C167.71 22.8921 167.166 23.3295 166.633 23.6921C166.1 24.0548 165.63 24.2361 165.225 24.2361ZM172.115 24.3321C171.603 24.3321 171.091 24.1508 170.579 23.7881C170.067 23.4255 169.779 22.9988 169.715 22.5081C169.502 20.8655 170.537 18.9135 172.819 16.6521C175.081 14.3908 177.118 13.2601 178.931 13.2601C179.422 13.2601 179.806 13.3775 180.083 13.6121C180.233 13.7615 180.339 13.9641 180.403 14.2201C180.489 14.4761 180.553 14.6041 180.595 14.6041C180.681 14.6041 180.755 14.5935 180.819 14.5721C180.883 14.5295 180.958 14.5081 181.043 14.5081C181.299 14.5081 181.523 14.6041 181.715 14.7961C181.907 14.9881 182.014 15.1588 182.035 15.3081C182.057 15.3508 181.374 16.4068 179.987 18.4761C178.601 20.5028 177.971 21.8788 178.099 22.6041C178.206 23.0948 178.441 23.3401 178.803 23.3401C179.913 23.3401 181.939 21.5055 184.883 17.8361C184.947 17.7508 185.011 17.7081 185.075 17.7081C185.182 17.7081 185.235 17.7828 185.235 17.9321C185.235 18.1028 185.139 18.3161 184.947 18.5721C182.238 22.2201 180.158 24.0441 178.707 24.0441C178.515 24.0441 178.334 24.0121 178.163 23.9481C177.225 23.5855 176.755 22.8815 176.755 21.8361C176.755 21.4735 176.798 21.1108 176.883 20.7481L174.899 22.6681C174.302 23.2655 173.758 23.6921 173.267 23.9481C172.798 24.2041 172.414 24.3321 172.115 24.3321ZM171.827 23.6281C173.065 23.6281 174.75 22.2735 176.883 19.5641L180.275 14.8921C180.105 14.5935 179.827 14.4441 179.443 14.4441C178.142 14.4441 176.382 15.4895 174.163 17.5801C171.859 19.7135 170.825 21.4735 171.059 22.8601C171.166 23.3721 171.422 23.6281 171.827 23.6281Z" fill="white"/>
</svg>
